<?xml version="1.0" standalone="no"?>
<!DOCTYPE svg PUBLIC "-//W3C//DTD SVG 20010904//EN"
 "http://www.w3.org/TR/2001/REC-SVG-20010904/DTD/svg10.dtd">
<svg version="1.0" xmlns="http://www.w3.org/2000/svg"
 width="500.000000pt" height="500.000000pt" viewBox="0 0 500.000000 500.000000"
 preserveAspectRatio="xMidYMid meet">

<g transform="translate(0.000000,500.000000) scale(0.100000,-0.100000)"
fill="#000000" stroke="none">
<path d="M2875 3219 c-122 -15 -256 -91 -331 -188 -21 -28 -41 -51 -44 -51 -3
0 -23 23 -45 51 -47 62 -121 119 -200 155 -51 23 -77 28 -170 32 -93 3 -120 1
-174 -18 -231 -78 -372 -300 -358 -565 12 -218 114 -405 347 -635 173 -171
429 -352 547 -386 48 -14 58 -14 105 0 111 32 363 206 529 364 165 156 272
309 330 469 63 175 48 380 -40 522 -50 82 -86 121 -156 170 -94 66 -216 94
-340 80z m-733 -60 c84 -18 155 -57 222 -121 38 -38 48 -51 26 -36 -105 75
-245 109 -361 88 -148 -27 -274 -124 -345 -268 l-39 -77 0 -142 c0 -130 -1
-139 -13 -105 -20 54 -27 217 -13 285 29 136 130 275 242 333 98 50 185 63
281 43z m880 0 c55 -12 136 -49 177 -80 27 -22 18 -25 -19 -6 -63 32 -109 40
-212 35 -65 -4 -118 -12 -142 -23 -69 -29 -152 -92 -207 -155 -40 -47 -58 -60
-80 -60 l-28 0 40 64 c71 114 176 192 294 222 65 16 111 17 177 3z m-726 -330
c13 -12 31 -42 40 -66 22 -57 9 -137 -37 -228 -39 -78 -114 -175 -135 -175
-32 0 -131 33 -196 66 -81 41 -136 88 -154 131 -18 43 -18 117 1 153 32 62
124 79 189 35 50 -34 63 -32 75 13 12 44 56 90 97 101 39 10 91 -2 120 -30z"/>
</g>
</svg>
